
            <svg data-logo="logo" xmlns="http://www.w3.org/2000/svg" viewBox="0 0 194 40">
                <g id="logogram" transform="translate(0, 0)"><path d="M18.7552 5.82192V0H0.399048V40H18.7552V34.1781C14.9949 34.1781 11.3886 32.6842 8.72978 30.0253C6.07088 27.3664 4.57713 23.7603 4.57713 20C4.57713 16.2397 6.07088 12.6334 8.72978 9.97459C11.3886 7.31568 14.9949 5.82192 18.7552 5.82192Z" fill="#FFFFFF"/><path d="M18.7552 5.82192V34.1781C22.5155 34.1781 26.1218 32.6843 28.7807 30.0253C31.4396 27.3664 32.9333 23.7603 32.9333 20C32.9333 16.2397 31.4396 12.6334 28.7807 9.97459C26.1218 7.31568 22.5155 5.82192 18.7552 5.82192Z" fill="#FFFFFF"/></g>
                <g id="logotype" transform="translate(39, 2.5)"><path fill="#ffffff" d="M17.38 35.24L17.38 35.24Q14.75 35.24 12.69 34.35Q10.62 33.46 9.29 31.83Q7.96 30.20 7.50 28.04L7.50 28.04L13.28 26.74Q13.67 28.45 14.68 29.43Q15.70 30.41 17.13 30.41L17.13 30.41Q18.64 30.41 19.46 29.79Q20.28 29.16 20.28 28.11L20.28 28.11Q20.28 27.16 19.62 26.55Q18.95 25.93 17.87 25.52Q16.78 25.09 15.47 24.67Q14.16 24.25 12.84 23.73Q11.53 23.20 10.43 22.42Q9.32 21.63 8.66 20.44Q8.00 19.25 8.00 17.50L8.00 17.50Q8.00 15.19 9.12 13.54Q10.23 11.90 12.25 11.04Q14.26 10.18 16.92 10.18L16.92 10.18Q19.34 10.18 21.23 10.99Q23.12 11.79 24.31 13.21Q25.50 14.63 25.85 16.55L25.85 16.55L20.11 18.06Q19.83 16.55 18.95 15.77Q18.08 14.98 16.78 14.98L16.78 14.98Q16.01 14.98 15.38 15.24Q14.75 15.50 14.38 15.99Q14.02 16.48 14.02 17.22L14.02 17.22Q14.02 18.13 14.68 18.72Q15.35 19.32 16.47 19.76Q17.59 20.20 18.91 20.60Q20.25 21 21.56 21.52Q22.87 22.05 23.97 22.84Q25.08 23.63 25.76 24.80Q26.44 25.97 26.44 27.72L26.44 27.72Q26.44 29.79 25.27 31.48Q24.10 33.18 22.07 34.21Q20.04 35.24 17.38 35.24ZM40.48 35.24L40.48 35.24Q37.89 35.24 35.61 34.32Q33.34 33.39 31.59 31.71Q29.84 30.03 28.87 27.74Q27.91 25.45 27.91 22.71L27.91 22.71Q27.91 19.95 28.87 17.67Q29.84 15.40 31.59 13.72Q33.34 12.04 35.61 11.11Q37.89 10.18 40.48 10.18L40.48 10.18Q43.10 10.18 45.38 11.11Q47.65 12.04 49.38 13.72Q51.12 15.40 52.08 17.67Q53.04 19.95 53.04 22.71L53.04 22.71Q53.04 25.45 52.08 27.74Q51.12 30.03 49.38 31.71Q47.65 33.39 45.38 34.32Q43.10 35.24 40.48 35.24ZM40.48 29.86L40.48 29.86Q42.47 29.86 43.94 28.96Q45.41 28.07 46.23 26.46Q47.06 24.85 47.06 22.71L47.06 22.71Q47.06 20.51 46.23 18.92Q45.41 17.32 43.94 16.45Q42.47 15.57 40.48 15.57L40.48 15.57Q38.48 15.57 37.01 16.45Q35.54 17.32 34.73 18.92Q33.93 20.51 33.93 22.71L33.93 22.71Q33.93 24.85 34.73 26.46Q35.54 28.07 37.01 28.96Q38.48 29.86 40.48 29.86ZM55.11 25.13L55.11 10.43L60.98 10.43L60.98 25.16Q60.98 27.37 62.09 28.58Q63.19 29.79 65.33 29.79L65.33 29.79Q67.46 29.79 68.58 28.58Q69.70 27.37 69.70 25.16L69.70 25.16L69.70 10.43L75.62 10.43L75.62 25.13Q75.62 28.49 74.18 30.75Q72.75 33.01 70.40 34.13Q68.06 35.24 65.22 35.24L65.22 35.24Q62.39 35.24 60.09 34.13Q57.80 33.01 56.45 30.75Q55.11 28.49 55.11 25.13L55.11 25.13ZM85.24 10.43L92.07 10.43L100.92 35L94.69 35L87.48 13.54L89.79 13.54L82.55 35L76.35 35L85.24 10.43ZM80.17 30.66L81.64 26.07L95.08 26.07L96.58 30.66L80.17 30.66ZM102.81 10.43L108.73 10.43L108.73 30.41L116.57 30.41L116.57 35L102.81 35L102.81 10.43ZM118.21 35L118.21 10.43L124.13 10.43L124.13 35L118.21 35ZM133.51 35L133.51 10.43L139.42 10.43L139.42 35L133.51 35ZM123.43 24.85L123.43 20.09L134.38 20.09L134.38 24.85L123.43 24.85ZM153.74 35L142.43 35L142.43 30.27L145.13 30.27L145.13 15.15L142.43 15.15L142.43 10.43L153.74 10.43L153.74 15.15L151.04 15.15L151.04 30.27L153.74 30.27L153.74 35Z"/></g>
                
            </svg>
        